<?xml version="1.0" encoding="utf-8"?>
<!-- Generator: Adobe Illustrator 27.3.1, SVG Export Plug-In . SVG Version: 6.00 Build 0)  -->
<svg version="1.1" id="Layer_1" xmlns="http://www.w3.org/2000/svg" xmlns:xlink="http://www.w3.org/1999/xlink" x="0px" y="0px"
	 viewBox="0 0 1000 1500" style="enable-background:new 0 0 1000 1500;" xml:space="preserve">
<style type="text/css">
	.st0{fill:#4E4B4D;}
	.st1{fill:#F8E7D2;}
	.st2{font-family:'ArialMT';}
	.st3{font-size:30px;}
	.st4{font-size:26px;}
	.st5{font-size:20px;}
	.st6{font-size:12px;}
	.st7{fill:#FFFFFF;}
	.st8{font-family:'Arial-ItalicMT';}
	.st9{fill:#872424;}
	.st10{font-size:24px;}
	.st11{fill:#BF3434;}
	.st12{fill:#FCE5CD;}
	.st13{font-size:15px;}
	.st14{fill:#2D5F5F;}
	.st15{fill:#CCE5F3;}
	.st16{font-size:16px;}
	.st17{fill:#1B4332;}
	.st18{enable-background:new    ;}
	.st19{fill:#D9F0E3;}
	.st20{font-family:'Arial-BoldMT';}
	.st21{font-size:16.6667px;}
	.st22{font-size:13px;}
</style>
<g id="intro" transform="translate(30,30)">
	<rect x="-30" y="-30" class="st0" width="1000" height="90"/>
	<g transform="translate(30)">
		<g id="name-title">
			<text class="st1 st2 st3">Sam Washington</text>
			<text transform="matrix(1 0 0 1 0 50)" class="st1 st2 st4">Senior Fullstack Engineer</text>
		</g>
		<g transform="translate(0,30)">
			<text transform="matrix(1 0 0 1 657.4805 0)" class="st1 st2 st5">Strong Team Contributor</text>
			<text transform="matrix(1 0 0 1 662.1992 24)" class="st1 st2 st6">for sustainable growth and development</text>
		</g>
	</g>
	<g transform="translate(0, 0)">
		<g transform="translate(30, 0)">
			<text transform="matrix(1 0 0 1 523.7305 0)" class="st7 st8 st5">This resume was hand-coded with SVG</text>
		</g>
	</g>
</g>
<g id="main-skills" transform="translate(0,100)">
	<rect class="st9" width="1000" height="45"/>
	<g transform="translate(30,30)">
		<text transform="matrix(1 0 0 1 141.8164 0)" class="st7 st2 st10">Feature Implementation, Bug Diagnosis, Auditing, Refactoring</text>
	</g>
</g>
<g id="tech-summary" transform="translate(0,155)">
	<rect class="st11" width="1000" height="165"/>
	<g transform="translate(30, 0)">
		<g transform="translate(470,30)">
			<g id="primary-technologies" transform="translate(-250)">
				<text transform="matrix(1 0 0 1 -18.1995 0)" class="st12 st2 st13">PHP</text>
				<text transform="matrix(1 0 0 1 12.6428 0)" class="st12 st2 st5"> </text>
				<text transform="matrix(1 0 0 1 -38.2092 30)" class="st12 st2 st13">TypeScript</text>
				<text transform="matrix(1 0 0 1 32.6526 30)" class="st12 st2 st5"> </text>
				<text transform="matrix(1 0 0 1 -23.6157 60)" class="st12 st2 st13">MySql</text>
				<text transform="matrix(1 0 0 1 18.0591 60)" class="st12 st2 st5"> </text>
				<text transform="matrix(1 0 0 1 -23.1946 90)" class="st12 st2 st13">HTML</text>
				<text transform="matrix(1 0 0 1 17.6379 90)" class="st12 st2 st5"> </text>
				<text transform="matrix(1 0 0 1 -15.4211 120)" class="st12 st2 st13">CSS</text>
			</g>
			<g id="secondary-technologies" transform="translate(250,0)">
				<text transform="matrix(1 0 0 1 -12.3621 0)" class="st12 st2 st13">Git</text>
				<text transform="matrix(1 0 0 1 6.8054 0)" class="st12 st2 st5"> </text>
				<text transform="matrix(1 0 0 1 -26.5344 30)" class="st12 st2 st13">Docker</text>
				<text transform="matrix(1 0 0 1 20.9778 30)" class="st12 st2 st5"> </text>
				<text transform="matrix(1 0 0 1 -19.5837 60)" class="st12 st2 st13">AWS</text>
				<text transform="matrix(1 0 0 1 14.0271 60)" class="st12 st2 st5"> </text>
				<text transform="matrix(1 0 0 1 -26.5308 90)" class="st12 st2 st13">NGINX</text>
				<text transform="matrix(1 0 0 1 20.9741 90)" class="st12 st2 st5"> </text>
				<text transform="matrix(1 0 0 1 -25.437 120)" class="st12 st2 st13">Apache</text>
			</g>
			<g id="tertiary-technologies" transform="translate(00,0)">
				<text transform="matrix(1 0 0 1 -102.8162 0)" class="st12 st2 st13">Object-Oriented Programming</text>
				<text transform="matrix(1 0 0 1 97.2595 0)" class="st12 st2 st5"> </text>
				<text transform="matrix(1 0 0 1 -84.48 30)" class="st12 st2 st13">Functional Programming</text>
				<text transform="matrix(1 0 0 1 78.9233 30)" class="st12 st2 st5"> </text>
				<text transform="matrix(1 0 0 1 -43.6218 60)" class="st12 st2 st13">Accessibility</text>
				<text transform="matrix(1 0 0 1 38.0652 60)" class="st12 st2 st5"> </text>
				<text transform="matrix(1 0 0 1 -37.9321 90)" class="st12 st2 st13">Unit-testing</text>
			</g>
		</g>
	</g>
</g>
<g id="overview" transform="translate(0,330)">
	<rect class="st14" width="1000" height="295"/>
	<g transform="translate(30,30)">
		<g id="developing" transform="translate(0,0)">
			<text transform="matrix(1 0 0 1 30 0)" class="st15 st2 st5">Development</text>
			<text transform="matrix(1 0 0 1 808.291 0)" class="st15 st2 st5">12</text>
			<text transform="matrix(1 0 0 1 830.5371 0)" class="st15 st2 st5"> </text>
			<text transform="matrix(1 0 0 1 851.0938 0)" class="st15 st2 st5">years</text>
			<a>
				<text transform="matrix(1 0 0 1 406.418 0)" class="st15 st2 st16" style="text-decoration: underline;">[link: an overview]</text>
			</a>
		</g>
		<g id="deploying" transform="translate(0,50)">
			<text transform="matrix(1 0 0 1 30 0)" class="st15 st2 st5">Deployment</text>
			<text transform="matrix(1 0 0 1 808.291 0)" class="st15 st2 st5">10</text>
			<text transform="matrix(1 0 0 1 830.5371 0)" class="st15 st2 st5"> </text>
			<text transform="matrix(1 0 0 1 851.0938 0)" class="st15 st2 st5">years</text>
			<a>
				<text transform="matrix(1 0 0 1 397.5312 0)" class="st15 st2 st16" style="text-decoration: underline;">[link: some musings]</text>
			</a>
		</g>
		<g id="architecting" transform="translate(0,100)">
			<text transform="matrix(1 0 0 1 30 0)" class="st15 st2 st5">Architecture</text>
			<text transform="matrix(1 0 0 1 819.4141 0)" class="st15 st2 st5">8</text>
			<text transform="matrix(1 0 0 1 830.5371 0)" class="st15 st2 st5"> </text>
			<text transform="matrix(1 0 0 1 851.0938 0)" class="st15 st2 st5">years</text>
			<a>
				<text transform="matrix(1 0 0 1 401.5234 0)" class="st15 st2 st16" style="text-decoration: underline;">[link: a cool project]</text>
			</a>
		</g>
		<g id="github" transform="translate(0,150)">
			<text transform="matrix(1 0 0 1 30 0)" class="st15 st2 st5">GitHub</text>
			<text transform="matrix(1 0 0 1 819.4141 0)" class="st15 st2 st5">7</text>
			<text transform="matrix(1 0 0 1 830.5371 0)" class="st15 st2 st5"> </text>
			<text transform="matrix(1 0 0 1 851.0938 0)" class="st15 st2 st5">years</text>
			<a>
				<text transform="matrix(1 0 0 1 414.4297 0)" class="st15 st2 st16" style="text-decoration: underline;">[link: my profile]</text>
			</a>
		</g>
		<g id="college" transform="translate(0,200)">
			<text transform="matrix(1 0 0 1 30 0)" class="st15 st2 st5">Post-college</text>
			<text transform="matrix(1 0 0 1 819.4141 0)" class="st15 st2 st5">6</text>
			<text transform="matrix(1 0 0 1 830.5371 0)" class="st15 st2 st5"> </text>
			<text transform="matrix(1 0 0 1 851.0938 0)" class="st15 st2 st5">years</text>
			<a>
				<text transform="matrix(1 0 0 1 389.9531 0)" class="st15 st2 st16" style="text-decoration: underline;">[link: a very good idea]</text>
			</a>
			<text transform="matrix(1 0 0 1 48 25)" class="st15 st2 st6">University of Illinois Urbana-Champaign</text>
			<text transform="matrix(1 0 0 1 258.7559 25)" class="st15 st2 st6"> </text>
			<text transform="matrix(1 0 0 1 72 49)" class="st15 st2 st6">Learning and Education Studies</text>
		</g>
	</g>
</g>
<g id="professional-experience" transform="translate(0,635)">
	<rect class="st17" width="1000" height="750"/>
	<g transform="translate(30,30)">
		<g id="professional-experience-title" transform="translate(30,10)">
			<g>
				<g class="st18">
					<path class="st19" d="M2.8,0v-21.9h7.1c1.3,0,2.5,0.3,3.5,0.8c1,0.5,1.8,1.3,2.3,2.2c0.5,1,0.8,2.1,0.8,3.4
						c0,1.3-0.3,2.4-0.8,3.4c-0.6,1-1.3,1.7-2.3,2.2C12.3-9.3,11.1-9,9.8-9H5.5v9H2.8z M9.8-11.4c1.2,0,2.1-0.4,2.8-1.1
						c0.7-0.7,1.1-1.7,1.1-3c0-1.2-0.4-2.2-1.1-3c-0.7-0.7-1.7-1.1-2.8-1.1H5.5v8.1H9.8z"/>
					<path class="st19" d="M21.3,0v-16.5H24v3.2h0.6l-0.9,1.9c0-1.8,0.4-3.1,1.2-4s1.9-1.4,3.4-1.4c1.7,0,3.1,0.5,4.2,1.6
						c1,1.1,1.5,2.6,1.5,4.4v1h-2.7v-0.8c0-1.3-0.3-2.3-0.9-3s-1.5-1-2.7-1c-1.1,0-2,0.4-2.7,1.1s-1,1.7-1,3V0H21.3z"/>
					<path class="st19" d="M45,0.3c-1.3,0-2.4-0.2-3.4-0.8c-1-0.5-1.7-1.2-2.2-2.2c-0.5-0.9-0.8-2.1-0.8-3.4v-4.5
						c0-1.3,0.3-2.4,0.8-3.4c0.5-0.9,1.2-1.7,2.2-2.2s2.1-0.8,3.4-0.8c1.3,0,2.4,0.2,3.4,0.8s1.7,1.2,2.2,2.2c0.5,1,0.8,2.1,0.8,3.3
						V-6c0,1.3-0.3,2.4-0.8,3.4c-0.5,1-1.2,1.7-2.2,2.2C47.4,0,46.3,0.3,45,0.3z M45-2.1c1.2,0,2.1-0.3,2.7-1
						c0.6-0.7,0.9-1.6,0.9-2.9v-4.5c0-1.3-0.3-2.2-0.9-2.9c-0.6-0.7-1.5-1-2.7-1c-1.2,0-2.1,0.3-2.7,1c-0.6,0.7-0.9,1.6-0.9,2.9V-6
						c0,1.3,0.3,2.2,0.9,2.9C42.9-2.4,43.8-2.1,45-2.1z"/>
					<path class="st19" d="M60.6,0v-13.7h-4.8v-2.5h4.8v-1.6c0-1.3,0.4-2.3,1.2-3c0.8-0.7,1.8-1.1,3.2-1.1H70v2.5h-5.1
						c-0.5,0-0.9,0.1-1.2,0.4s-0.4,0.7-0.4,1.2v1.6H70v2.5h-6.8V0H60.6z"/>
					<path class="st19" d="M81,0.3c-1.3,0-2.4-0.3-3.4-0.8c-1-0.5-1.7-1.3-2.2-2.2S74.6-4.7,74.6-6v-4.5c0-1.3,0.3-2.4,0.8-3.3
						c0.5-0.9,1.3-1.7,2.2-2.2c1-0.5,2.1-0.8,3.4-0.8c1.3,0,2.4,0.3,3.4,0.8c1,0.5,1.7,1.3,2.2,2.2c0.5,1,0.8,2.1,0.8,3.3v2.9H77.3
						V-6c0,1.3,0.3,2.3,0.9,3s1.6,1,2.8,1c1,0,1.9-0.2,2.5-0.6c0.6-0.4,1-0.9,1.1-1.7h2.7c-0.2,1.4-0.8,2.5-2,3.3
						C84.2-0.1,82.7,0.3,81,0.3z M84.7-10.5c0-1.3-0.3-2.3-0.9-3c-0.6-0.7-1.6-1-2.8-1c-1.2,0-2.1,0.3-2.8,1c-0.6,0.7-0.9,1.7-0.9,3
						v0.9h7.7l-0.2,0.2V-10.5z"/>
					<path class="st19" d="M98.3,0.3c-1.1,0-2.1-0.2-2.9-0.5c-0.8-0.4-1.5-0.9-2-1.5c-0.5-0.6-0.8-1.4-0.9-2.3h2.7
						c0.1,0.6,0.5,1.1,1,1.4c0.5,0.4,1.2,0.5,2.1,0.5h1.3c1,0,1.8-0.2,2.4-0.7c0.5-0.4,0.8-1,0.8-1.8c0-0.7-0.2-1.2-0.7-1.6
						c-0.5-0.4-1.2-0.7-2.1-0.8l-2.2-0.4c-1.6-0.3-2.9-0.8-3.6-1.5c-0.8-0.8-1.2-1.8-1.2-3.2c0-1.5,0.5-2.7,1.4-3.5
						c1-0.8,2.4-1.2,4.2-1.2h1.1c1.6,0,2.8,0.4,3.8,1.1c1,0.8,1.6,1.8,1.8,3h-2.7c-0.1-0.5-0.4-1-0.9-1.3c-0.5-0.3-1.1-0.5-1.9-0.5
						h-1.1c-1,0-1.7,0.2-2.2,0.6s-0.7,1-0.7,1.7c0,0.7,0.2,1.2,0.6,1.5s1,0.6,1.9,0.7l2.2,0.4c1.8,0.3,3.1,0.8,3.9,1.6
						c0.8,0.8,1.2,1.9,1.2,3.3c0,1.6-0.5,2.8-1.5,3.6c-1,0.9-2.4,1.3-4.4,1.3H98.3z"/>
					<path class="st19" d="M116.3,0.3c-1.1,0-2.1-0.2-2.9-0.5c-0.8-0.4-1.5-0.9-2-1.5c-0.5-0.6-0.8-1.4-0.9-2.3h2.7
						c0.1,0.6,0.5,1.1,1,1.4c0.5,0.4,1.2,0.5,2.1,0.5h1.3c1,0,1.8-0.2,2.4-0.7c0.5-0.4,0.8-1,0.8-1.8c0-0.7-0.2-1.2-0.7-1.6
						c-0.5-0.4-1.2-0.7-2.1-0.8l-2.2-0.4c-1.6-0.3-2.9-0.8-3.6-1.5c-0.8-0.8-1.2-1.8-1.2-3.2c0-1.5,0.5-2.7,1.4-3.5
						c1-0.8,2.4-1.2,4.2-1.2h1.1c1.6,0,2.8,0.4,3.8,1.1c1,0.8,1.6,1.8,1.8,3h-2.7c-0.1-0.5-0.4-1-0.9-1.3c-0.5-0.3-1.1-0.5-1.9-0.5
						h-1.1c-1,0-1.7,0.2-2.2,0.6s-0.7,1-0.7,1.7c0,0.7,0.2,1.2,0.6,1.5s1,0.6,1.9,0.7l2.2,0.4c1.8,0.3,3.1,0.8,3.9,1.6
						c0.8,0.8,1.2,1.9,1.2,3.3c0,1.6-0.5,2.8-1.5,3.6c-1,0.9-2.4,1.3-4.4,1.3H116.3z"/>
					<path class="st19" d="M128.4,0v-2.5h5.9V-14h-5.1v-2.5h7.8v14h5.5V0H128.4z M135-19.3c-0.6,0-1.1-0.2-1.4-0.5
						c-0.4-0.3-0.5-0.8-0.5-1.3s0.2-1,0.5-1.3c0.4-0.3,0.8-0.5,1.4-0.5h0.6c0.6,0,1,0.2,1.4,0.5c0.4,0.3,0.5,0.8,0.5,1.3
						s-0.2,1-0.5,1.3c-0.4,0.3-0.8,0.5-1.4,0.5H135z"/>
					<path class="st19" d="M153,0.3c-1.3,0-2.4-0.2-3.4-0.8c-1-0.5-1.7-1.2-2.2-2.2c-0.5-0.9-0.8-2.1-0.8-3.4v-4.5
						c0-1.3,0.3-2.4,0.8-3.4c0.5-0.9,1.2-1.7,2.2-2.2s2.1-0.8,3.4-0.8c1.3,0,2.4,0.2,3.4,0.8s1.7,1.2,2.2,2.2c0.5,1,0.8,2.1,0.8,3.3
						V-6c0,1.3-0.3,2.4-0.8,3.4c-0.5,1-1.2,1.7-2.2,2.2C155.4,0,154.3,0.3,153,0.3z M153-2.1c1.2,0,2.1-0.3,2.7-1
						c0.6-0.7,0.9-1.6,0.9-2.9v-4.5c0-1.3-0.3-2.2-0.9-2.9c-0.6-0.7-1.5-1-2.7-1c-1.2,0-2.1,0.3-2.7,1c-0.6,0.7-0.9,1.6-0.9,2.9V-6
						c0,1.3,0.3,2.2,0.9,2.9C150.9-2.4,151.8-2.1,153-2.1z"/>
					<path class="st19" d="M164.8,0v-16.5h2.7v3.2h0.6l-0.6,0.6c0-1.3,0.4-2.3,1.2-3c0.8-0.7,1.9-1.1,3.2-1.1c1.7,0,3,0.5,4,1.5
						c1,1,1.5,2.4,1.5,4.2V0h-2.7v-10.8c0-1.2-0.3-2.1-0.9-2.7c-0.6-0.7-1.5-1-2.6-1c-1.1,0-2,0.4-2.7,1.1s-1,1.7-1,3V0H164.8z"/>
					<path class="st19" d="M187.5,0.3c-1.7,0-3-0.4-4-1.3c-1-0.9-1.5-2.1-1.5-3.6c0-1.6,0.5-2.8,1.5-3.7c1-0.9,2.3-1.4,4.1-1.4h5.1
						v-1.6c0-1-0.3-1.8-0.9-2.3c-0.6-0.5-1.5-0.8-2.6-0.8c-1,0-1.8,0.2-2.4,0.6c-0.6,0.4-1,1-1.1,1.6h-2.7c0.2-1.4,0.8-2.5,2-3.4
						s2.6-1.3,4.3-1.3c1.9,0,3.4,0.5,4.6,1.5c1.1,1,1.7,2.3,1.7,4V0h-2.6v-3.2H192l0.6-0.3c0,1.1-0.5,2.1-1.5,2.7
						C190.2,0,189,0.3,187.5,0.3z M188.1-1.8c1.3,0,2.4-0.3,3.2-0.9c0.8-0.6,1.3-1.5,1.3-2.5v-2.3h-5c-0.9,0-1.6,0.2-2.1,0.8
						c-0.5,0.5-0.8,1.2-0.8,2.1c0,0.9,0.3,1.6,0.9,2.2C186.2-2.1,187-1.8,188.1-1.8z"/>
					<path class="st19" d="M208.9,0c-1.5,0-2.6-0.4-3.5-1.3c-0.9-0.8-1.3-2-1.3-3.4v-14.8h-4.9v-2.5h7.6v17.2c0,0.7,0.2,1.2,0.6,1.6
						s0.9,0.6,1.5,0.6h5.5V0H208.9z"/>
					<path class="st19" d="M237,0v-21.9h12.6v2.4h-9.9v6.8h8.9v2.4h-8.9v7.8h9.9V0H237z"/>
					<path class="st19" d="M253.6,0l5.7-8.5l-5.3-8h3.2l3.1,5.1c0.2,0.4,0.5,0.8,0.7,1.4c0.2-0.5,0.5-1,0.7-1.4l3.1-5.1h3.1l-5.3,8
						l5.7,8.5h-3.2l-3.4-5.4c-0.2-0.4-0.5-0.9-0.8-1.5c-0.3,0.6-0.6,1.1-0.8,1.5L256.8,0H253.6z"/>
					<path class="st19" d="M272.8,5.4v-21.9h2.7v3.2h0.5l-0.5,0.6c0-1.3,0.4-2.3,1.2-3c0.8-0.7,1.9-1.1,3.3-1.1c1.7,0,3,0.5,3.9,1.6
						c1,1.1,1.4,2.6,1.4,4.5v4.8c0,1.9-0.5,3.4-1.4,4.5s-2.3,1.6-3.9,1.6c-1.4,0-2.5-0.4-3.3-1.1c-0.8-0.7-1.2-1.7-1.2-3l0.5,0.6
						h-0.6l0.1,3.8v4.8H272.8z M279.1-2c1.1,0,2-0.3,2.6-1c0.6-0.7,0.9-1.7,0.9-2.9v-4.5c0-1.3-0.3-2.3-0.9-2.9
						c-0.6-0.7-1.5-1-2.6-1c-1.1,0-2,0.4-2.7,1c-0.7,0.7-1,1.7-1,2.9V-6c0,1.2,0.3,2.2,1,2.9C277.1-2.4,278-2,279.1-2z"/>
					<path class="st19" d="M297,0.3c-1.3,0-2.4-0.3-3.4-0.8c-1-0.5-1.7-1.3-2.2-2.2s-0.8-2.1-0.8-3.3v-4.5c0-1.3,0.3-2.4,0.8-3.3
						c0.5-0.9,1.3-1.7,2.2-2.2c1-0.5,2.1-0.8,3.4-0.8c1.3,0,2.4,0.3,3.4,0.8c1,0.5,1.7,1.3,2.2,2.2c0.5,1,0.8,2.1,0.8,3.3v2.9h-10.1
						V-6c0,1.3,0.3,2.3,0.9,3s1.6,1,2.8,1c1,0,1.9-0.2,2.5-0.6c0.6-0.4,1-0.9,1.1-1.7h2.7c-0.2,1.4-0.8,2.5-2,3.3
						C300.2-0.1,298.7,0.3,297,0.3z M300.7-10.5c0-1.3-0.3-2.3-0.9-3c-0.6-0.7-1.6-1-2.8-1c-1.2,0-2.1,0.3-2.8,1
						c-0.6,0.7-0.9,1.7-0.9,3v0.9h7.7l-0.2,0.2V-10.5z"/>
					<path class="st19" d="M309.3,0v-16.5h2.6v3.2h0.6l-0.9,1.9c0-1.8,0.4-3.1,1.2-4s1.9-1.4,3.4-1.4c1.7,0,3.1,0.5,4.2,1.6
						c1,1.1,1.5,2.6,1.5,4.4v1h-2.7v-0.8c0-1.3-0.3-2.3-0.9-3s-1.5-1-2.7-1c-1.1,0-2,0.4-2.7,1.1c-0.7,0.7-1,1.7-1,3V0H309.3z"/>
					<path class="st19" d="M326.4,0v-2.5h5.8V-14h-5.1v-2.5h7.8v14h5.5V0H326.4z M333-19.3c-0.6,0-1.1-0.2-1.4-0.5
						c-0.4-0.3-0.5-0.8-0.5-1.3s0.2-1,0.5-1.3c0.4-0.3,0.8-0.5,1.4-0.5h0.6c0.6,0,1.1,0.2,1.4,0.5c0.4,0.3,0.5,0.8,0.5,1.3
						s-0.2,1-0.5,1.3c-0.4,0.3-0.8,0.5-1.4,0.5H333z"/>
					<path class="st19" d="M351,0.3c-1.3,0-2.4-0.3-3.4-0.8c-1-0.5-1.7-1.3-2.2-2.2c-0.5-1-0.8-2.1-0.8-3.3v-4.5
						c0-1.3,0.3-2.4,0.8-3.3c0.5-0.9,1.3-1.7,2.2-2.2c1-0.5,2.1-0.8,3.4-0.8c1.3,0,2.4,0.3,3.4,0.8c1,0.5,1.7,1.3,2.2,2.2
						c0.5,1,0.8,2.1,0.8,3.3v2.9h-10.1V-6c0,1.3,0.3,2.3,0.9,3c0.6,0.7,1.6,1,2.8,1c1,0,1.9-0.2,2.5-0.6s1-0.9,1.1-1.7h2.7
						c-0.2,1.4-0.8,2.5-2,3.3C354.2-0.1,352.7,0.3,351,0.3z M354.7-10.5c0-1.3-0.3-2.3-0.9-3c-0.6-0.7-1.6-1-2.8-1s-2.1,0.3-2.8,1
						c-0.6,0.7-0.9,1.7-0.9,3v0.9h7.6l-0.2,0.2V-10.5z"/>
					<path class="st19" d="M362.8,0v-16.5h2.7v3.2h0.6l-0.6,0.6c0-1.3,0.4-2.3,1.2-3c0.8-0.7,1.9-1.1,3.2-1.1c1.7,0,3,0.5,4,1.5
						c1,1,1.5,2.4,1.5,4.2V0h-2.7v-10.8c0-1.2-0.3-2.1-0.9-2.7s-1.5-1-2.6-1c-1.1,0-2,0.4-2.7,1.1c-0.6,0.7-1,1.7-1,3V0H362.8z"/>
					<path class="st19" d="M387.1,0.3c-1.3,0-2.5-0.2-3.5-0.8c-1-0.5-1.7-1.2-2.2-2.2c-0.5-0.9-0.8-2.1-0.8-3.4v-4.5
						c0-1.3,0.3-2.4,0.8-3.4c0.5-0.9,1.3-1.7,2.2-2.2c1-0.5,2.1-0.8,3.5-0.8c1.9,0,3.4,0.5,4.6,1.5c1.2,1,1.8,2.4,1.8,4.2h-2.7
						c-0.1-1-0.4-1.8-1.1-2.4c-0.7-0.6-1.5-0.9-2.7-0.9c-1.2,0-2.1,0.3-2.8,1s-1,1.6-1,2.8V-6c0,1.2,0.3,2.2,1,2.9
						c0.7,0.7,1.6,1,2.8,1c1.1,0,2-0.3,2.7-0.9c0.6-0.6,1-1.4,1.1-2.4h2.7c-0.1,1.8-0.7,3.2-1.8,4.2C390.5-0.2,389,0.3,387.1,0.3z"
						/>
					<path class="st19" d="M405,0.3c-1.3,0-2.4-0.3-3.4-0.8c-1-0.5-1.7-1.3-2.2-2.2c-0.5-1-0.8-2.1-0.8-3.3v-4.5
						c0-1.3,0.3-2.4,0.8-3.3c0.5-0.9,1.3-1.7,2.2-2.2c1-0.5,2.1-0.8,3.4-0.8c1.3,0,2.4,0.3,3.4,0.8c1,0.5,1.7,1.3,2.2,2.2
						c0.5,1,0.8,2.1,0.8,3.3v2.9h-10.1V-6c0,1.3,0.3,2.3,0.9,3c0.6,0.7,1.6,1,2.8,1c1,0,1.9-0.2,2.5-0.6s1-0.9,1.1-1.7h2.7
						c-0.2,1.4-0.8,2.5-2,3.3C408.2-0.1,406.7,0.3,405,0.3z M408.7-10.5c0-1.3-0.3-2.3-0.9-3c-0.6-0.7-1.6-1-2.8-1s-2.1,0.3-2.8,1
						c-0.6,0.7-0.9,1.7-0.9,3v0.9h7.6l-0.2,0.2V-10.5z"/>
				</g>
			</g>
			<text transform="matrix(1 0 0 1 783.291 0)" class="st19 st2 st5">10</text>
			<text transform="matrix(1 0 0 1 805.5371 0)" class="st19 st2 st5"> </text>
			<text transform="matrix(1 0 0 1 826.0938 0)" class="st19 st2 st5">years</text>
		</g>
		<g id="year-2022" transform="translate(30,160)">
			<text class="st19 st20 st5">Curology</text>
			<text transform="matrix(1 0 0 1 87.7734 0)" class="st19 st2 st5"> </text>
			<text transform="matrix(1 0 0 1 105.8301 0)" class="st19 st8 st21">(remote)</text>
			<g transform="translate(20)">
				<text transform="matrix(1 0 0 1 0 26)" class="st19 st2 st22">Bug Diagnosis</text>
				<text transform="matrix(1 0 0 1 83.8271 26)" class="st19 st2 st5"> </text>
				<text transform="matrix(1 0 0 1 0 52)" class="st19 st2 st22">Architecture Visualization</text>
			</g>
			<g transform="translate(350)">
				<text transform="matrix(1 0 0 1 0 26)" class="st19 st2 st22">React</text>
				<text transform="matrix(1 0 0 1 33.96 26)" class="st19 st2 st5"> </text>
				<text transform="matrix(1 0 0 1 0 52)" class="st19 st2 st22">Mobx/Redux</text>
				<text transform="matrix(1 0 0 1 72.979 52)" class="st19 st2 st5"> </text>
				<text transform="matrix(1 0 0 1 0 78)" class="st19 st2 st22">Gatsby</text>
			</g>
		</g>
		<g id="year-2022_00000029733315624213075550000008439892084232635820_" transform="translate(30,50)">
			<text class="st19 st20 st5">Ender</text>
			<text transform="matrix(1 0 0 1 56.6797 0)" class="st19 st2 st5"> </text>
			<text transform="matrix(1 0 0 1 74.7363 0)" class="st19 st8 st21">(remote)</text>
			<g transform="translate(875)">
				<text transform="matrix(1 0 0 1 -44.4922 0)" class="st19 st2 st5">2022</text>
				<text transform="matrix(1 0 0 1 -243.3887 40)" class="st19 st20 st5">Senior Software Engineer</text>
			</g>
			<g transform="translate(20)">
				<text transform="matrix(1 0 0 1 0 26)" class="st19 st2 st22">Design System Development</text>
				<text transform="matrix(1 0 0 1 167.6289 26)" class="st19 st2 st5"> </text>
				<text transform="matrix(1 0 0 1 0 52)" class="st19 st2 st22">Component Library Research</text>
				<text transform="matrix(1 0 0 1 169.8062 52)" class="st19 st2 st5"> </text>
				<text transform="matrix(1 0 0 1 0 78)" class="st19 st2 st22">Project Architecture</text>
			</g>
			<g transform="translate(350)">
				<text transform="matrix(1 0 0 1 0 26)" class="st19 st2 st22">Java</text>
				<text transform="matrix(1 0 0 1 27.46 26)" class="st19 st2 st5"> </text>
				<text transform="matrix(1 0 0 1 0 52)" class="st19 st2 st22">React</text>
				<text transform="matrix(1 0 0 1 33.96 52)" class="st19 st2 st5"> </text>
				<text transform="matrix(1 0 0 1 0 78)" class="st19 st2 st22">Mantine</text>
			</g>
		</g>
		<g id="year-2019" transform="translate(30,245)">
			<text class="st19 st20 st5">Mbira Technologies</text>
			<text transform="matrix(1 0 0 1 186.3184 0)" class="st19 st2 st5"> </text>
			<text transform="matrix(1 0 0 1 204.375 0)" class="st19 st8 st21">(Chicago)</text>
			<g transform="translate(875)">
				<text transform="matrix(1 0 0 1 -95.6445 0)" class="st19 st2 st5">2019-2021</text>
				<text transform="matrix(1 0 0 1 -177.832 40)" class="st19 st20 st5">Fullstack Engineer</text>
			</g>
			<g transform="translate(20)">
				<text transform="matrix(1 0 0 1 0 26)" class="st19 st2 st22">Internal App Development</text>
				<text transform="matrix(1 0 0 1 149.5952 26)" class="st19 st2 st5"> </text>
				<text transform="matrix(1 0 0 1 0 52)" class="st19 st2 st22">Fraud Detection/Prevention</text>
				<text transform="matrix(1 0 0 1 158.2534 52)" class="st19 st2 st5"> </text>
				<text transform="matrix(1 0 0 1 0 78)" class="st19 st2 st22">Code Review</text>
			</g>
			<g transform="translate(350)">
				<text transform="matrix(1 0 0 1 0 26)" class="st19 st2 st22">PHP</text>
				<text transform="matrix(1 0 0 1 26.73 26)" class="st19 st2 st5"> </text>
				<text transform="matrix(1 0 0 1 0 52)" class="st19 st2 st22">Symfony</text>
				<text transform="matrix(1 0 0 1 50.5718 52)" class="st19 st2 st5"> </text>
				<text transform="matrix(1 0 0 1 0 78)" class="st19 st2 st22">React</text>
			</g>
		</g>
		<g id="year-2018" transform="translate(30,360)">
			<text class="st19 st20 st5">EnsembleIQ</text>
			<text transform="matrix(1 0 0 1 115.5957 0)" class="st19 st2 st5"> </text>
			<text transform="matrix(1 0 0 1 133.6524 0)" class="st19 st8 st21">(Chicago)</text>
			<g transform="translate(875)">
				<text transform="matrix(1 0 0 1 -95.6445 0)" class="st19 st2 st5">2018-2019</text>
				<text transform="matrix(1 0 0 1 -288.2031 40)" class="st19 st20 st5">Digital Applications Developer</text>
			</g>
			<g transform="translate(20)">
				<text transform="matrix(1 0 0 1 0 26)" class="st19 st2 st22">Software Lifecycle Management</text>
				<text transform="matrix(1 0 0 1 184.9834 26)" class="st19 st2 st5"> </text>
				<text transform="matrix(1 0 0 1 0 52)" class="st19 st2 st22">Marketing Site Development</text>
				<text transform="matrix(1 0 0 1 163.2998 52)" class="st19 st2 st5"> </text>
				<text transform="matrix(1 0 0 1 0 78)" class="st19 st2 st22">Content Management</text>
			</g>
			<g transform="translate(350)">
				<text transform="matrix(1 0 0 1 0 26)" class="st19 st2 st22">React</text>
				<text transform="matrix(1 0 0 1 33.96 26)" class="st19 st2 st5"> </text>
				<text transform="matrix(1 0 0 1 0 52)" class="st19 st2 st22">Drupal</text>
				<text transform="matrix(1 0 0 1 38.2954 52)" class="st19 st2 st5"> </text>
				<text transform="matrix(1 0 0 1 0 78)" class="st19 st2 st22">PHP</text>
			</g>
		</g>
		<g id="year-2016" transform="translate(30,475)">
			<text class="st19 st20 st5">University of Illinois Extension</text>
			<text transform="matrix(1 0 0 1 291.1719 0)" class="st19 st2 st5"> </text>
			<text transform="matrix(1 0 0 1 309.2285 0)" class="st19 st8 st21">(Urbana)</text>
			<g transform="translate(875)">
				<text transform="matrix(1 0 0 1 -95.6445 0)" class="st19 st2 st5">2016-2017</text>
				<text transform="matrix(1 0 0 1 -210.791 40)" class="st19 st20 st5">Intern, Web Developer</text>
			</g>
			<g transform="translate(20)">
				<text transform="matrix(1 0 0 1 0 26)" class="st19 st2 st22">Project Architecture</text>
				<text transform="matrix(1 0 0 1 112.7153 26)" class="st19 st2 st5"> </text>
				<text transform="matrix(1 0 0 1 0 52)" class="st19 st2 st22">Order Placement</text>
				<text transform="matrix(1 0 0 1 98.2617 52)" class="st19 st2 st5"> </text>
				<text transform="matrix(1 0 0 1 0 78)" class="st19 st2 st22">Authentication</text>
			</g>
			<g transform="translate(350)">
				<text transform="matrix(1 0 0 1 0 26)" class="st19 st2 st22">PHP</text>
				<text transform="matrix(1 0 0 1 26.73 26)" class="st19 st2 st5"> </text>
				<text transform="matrix(1 0 0 1 0 52)" class="st19 st2 st22">Drupal</text>
				<text transform="matrix(1 0 0 1 38.2954 52)" class="st19 st2 st5"> </text>
				<text transform="matrix(1 0 0 1 0 78)" class="st19 st2 st22">Symfony</text>
			</g>
		</g>
		<g id="year-2012" transform="translate(30,590)">
			<text class="st19 st20 st5">Honor Services Office</text>
			<text transform="matrix(1 0 0 1 208.9648 0)" class="st19 st2 st5"> </text>
			<text transform="matrix(1 0 0 1 227.0215 0)" class="st19 st8 st21">(Chicagoland)</text>
			<g transform="translate(875)">
				<text transform="matrix(1 0 0 1 -95.6445 0)" class="st19 st2 st5">2012-2016</text>
				<text transform="matrix(1 0 0 1 -152.6172 40)" class="st19 st20 st5">Intern, Architect</text>
			</g>
			<g transform="translate(20)">
				<text transform="matrix(1 0 0 1 0 26)" class="st19 st2 st22">Project Architecture</text>
				<text transform="matrix(1 0 0 1 112.7153 26)" class="st19 st2 st5"> </text>
				<text transform="matrix(1 0 0 1 0 52)" class="st19 st2 st22">User Profile Administration</text>
				<text transform="matrix(1 0 0 1 153.1689 52)" class="st19 st2 st5"> </text>
				<text transform="matrix(1 0 0 1 0 78)" class="st19 st2 st22">Document Storage</text>
			</g>
			<g transform="translate(350)">
				<text transform="matrix(1 0 0 1 0 26)" class="st19 st2 st22">PHP</text>
				<text transform="matrix(1 0 0 1 26.73 26)" class="st19 st2 st5"> </text>
				<text transform="matrix(1 0 0 1 0 52)" class="st19 st2 st22">JavaScript</text>
				<text transform="matrix(1 0 0 1 60.6899 52)" class="st19 st2 st5"> </text>
				<text transform="matrix(1 0 0 1 0 78)" class="st19 st2 st22">jQuery</text>
			</g>
		</g>
	</g>
</g>
</svg>
