<?xml version="1.0" encoding="utf-8"?>
<!-- Generator: Adobe Illustrator 27.3.1, SVG Export Plug-In . SVG Version: 6.00 Build 0)  -->
<svg version="1.1" id="Layer_1" xmlns="http://www.w3.org/2000/svg" xmlns:xlink="http://www.w3.org/1999/xlink" x="0px" y="0px"
	 viewBox="0 0 1000 4000" style="enable-background:new 0 0 1000 4000;" xml:space="preserve">
<style type="text/css">
	.st0{fill:#4E4B4D;}
	.st1{fill:#F8E7D2;}
	.st2{font-family:'CourierNewPSMT';}
	.st3{font-size:30px;}
	.st4{font-size:26px;}
	.st5{font-size:20px;}
	.st6{font-family:'CourierNewPS-ItalicMT';}
	.st7{font-size:18px;}
	.st8{fill:#FFFFFF;}
	.st9{font-size:24px;}
	.st10{fill:#FFFFFF;stroke:#000000;stroke-miterlimit:10;}
	.st11{fill:#2D5F5F;}
	.st12{fill:#CCE5F3;}
	.st13{font-size:13px;}
	.st14{font-size:16px;}
	.st15{opacity:0;fill:#CCE5F3;enable-background:new    ;}
	.st16{font-size:12px;}
	.st17{fill:#1B4332;}
	.st18{opacity:0.3;enable-background:new    ;}
	.st19{fill:#D9F0E3;}
	.st20{font-size:17px;}
	.st21{font-family:'CourierNewPS-BoldMT';}
	.st22{font-size:15px;}
	.st23{opacity:0.75;fill:#D9F0E3;enable-background:new    ;}
	.st24{opacity:0.3;fill:#D9F0E3;enable-background:new    ;}
	.st25{opacity:0;fill:#D9F0E3;enable-background:new    ;}
	.st26{font-size:16.6667px;}
	.st27{fill:#0F456D;}
	.st28{fill:#FBD000;}
	.st29{font-size:60px;}
	.st30{font-size:40px;}
	.st31{opacity:0;fill:#0F456D;enable-background:new    ;}
	.st32{font-size:4px;}
	.st33{font-size:55px;}
	.st34{font-size:25px;}
	.st35{font-family:'CourierNewPS-BoldItalicMT';}
	.st36{font-size:48px;}
	.st37{font-size:70px;}
	.st38{font-size:0.4px;}
	.st39{font-size:72px;}
</style>
<g id="section--intro" transform="translate(30,30.0020)">
	<rect x="-30" y="-30" class="st0" width="1000" height="170"/>
	<g transform="translate(0, 45)">
		<text transform="matrix(1 0 0 1 0 -4.787500e-05)" class="st1 st2 st3">Sam Washington</text>
		<text transform="matrix(1 0 0 1 0 30)" class="st1 st2 st4">Senior Fullstack Engineer</text>
		<g transform="translate(30)">
			<text transform="matrix(1 0 0 1 623.9551 -4.787500e-05)" class="st1 st2 st5">Strong Team Contributor</text>
			<text transform="matrix(1 0 0 1 491.9336 30)" class="st1 st2 st5">sustainable growth and development</text>
		</g>
	</g>
	<text transform="matrix(1 0 0 1 0 -4.787500e-05)" class="st1 st2 st5"> </text>
	<g transform="translate(30, -15)">
		<text transform="matrix(1 0 0 1 244.7666 15)" class="st1 st6 st7">This resume was made manually with SVG</text>
	</g>
	<text transform="matrix(1 0 0 1 0 -4.787500e-05)" class="st1 st2 st5"> </text>
	<g transform="translate(30, 120)">
		<a>
			<text transform="matrix(1 0 0 1 253.9893 -4.787500e-05)" class="st1 st2 st5">spwashi.com</text>
		</a>
		<a>
			<text transform="matrix(1 0 0 1 507.9883 -4.787500e-05)" class="st1 st2 st5">introduction</text>
		</a>
	</g>
</g>
<text class="st2 st5"> </text>
<text class="st2 st5"> </text>
<g id="section--main_skills" transform="translate(0,180.000001131)">
	<rect width="1000" height="45"/>
	<g transform="translate(30,30)">
		<text transform="matrix(1 0 0 1 23.5273 0)" class="st8 st2 st9">Feature Implementation, Bug Diagnostics, Auditing, Refactoring</text>
	</g>
</g>
<text class="st2 st5"> </text>
<g id="section--tech_summary" transform="translate(0,235.000002242)">
	<rect class="st10" width="1000" height="165"/>
	<g transform="translate(500, 30)">
		<g transform="translate(-250)">
			<text transform="matrix(1 0 0 1 -132.0215 0)" class="st10 st2 st5">PHP/TypeScript/Python</text>
			<text transform="matrix(1 0 0 1 120.0195 0)" class="st10 st2 st5"> </text>
			<text transform="matrix(1 0 0 1 -180.0293 40)" class="st10 st2 st5">Relational/Document Databases</text>
			<text transform="matrix(1 0 0 1 168.0273 40)" class="st10 st2 st5"> </text>
			<text transform="matrix(1 0 0 1 -54.0088 80)" class="st10 st2 st5">CSS/SASS</text>
			<text transform="matrix(1 0 0 1 42.0068 80)" class="st10 st2 st5"> </text>
			<text transform="matrix(1 0 0 1 -102.0166 120)" class="st10 st2 st5">Webpack/Composer</text>
			<text transform="matrix(1 0 0 1 90.0146 120)" class="st10 st2 st5"> </text>
			<text transform="matrix(1 0 0 1 -108.0176 160)" class="st10 st2 st5">Templating Engines</text>
		</g>
		<g transform="translate(0,0)">
			<text transform="matrix(1 0 0 1 -132.0215 0)" class="st10 st2 st5">Programming Paradigms</text>
			<text transform="matrix(1 0 0 1 120.0195 0)" class="st10 st2 st5"> </text>
			<text transform="matrix(1 0 0 1 -60.0098 40)" class="st10 st2 st5">Analytics</text>
			<text transform="matrix(1 0 0 1 48.0078 40)" class="st10 st2 st5"> </text>
			<text transform="matrix(1 0 0 1 -84.0137 80)" class="st10 st2 st5">Accessibility</text>
			<text transform="matrix(1 0 0 1 72.0117 80)" class="st10 st2 st5"> </text>
			<text transform="matrix(1 0 0 1 -66.0107 120)" class="st10 st2 st5">Testing/QA</text>
			<text transform="matrix(1 0 0 1 54.0088 120)" class="st10 st2 st5"> </text>
			<text transform="matrix(1 0 0 1 -108.0176 160)" class="st10 st2 st5">End-to-End Testing</text>
		</g>
		<g transform="translate(250,0)">
			<text transform="matrix(1 0 0 1 -96.0156 0)" class="st10 st2 st5">Version Control</text>
			<text transform="matrix(1 0 0 1 84.0137 0)" class="st10 st2 st5"> </text>
			<text transform="matrix(1 0 0 1 -96.0156 40)" class="st10 st2 st5">Servers/Proxies</text>
			<text transform="matrix(1 0 0 1 84.0137 40)" class="st10 st2 st5"> </text>
			<text transform="matrix(1 0 0 1 -102.0166 80)" class="st10 st2 st5">Containerization</text>
			<text transform="matrix(1 0 0 1 90.0146 80)" class="st10 st2 st5"> </text>
			<text transform="matrix(1 0 0 1 -72.0117 120)" class="st10 st2 st5">Performance</text>
			<text transform="matrix(1 0 0 1 60.0098 120)" class="st10 st2 st5"> </text>
			<text transform="matrix(1 0 0 1 -96.0156 160)" class="st10 st2 st5">Bundling/Caching</text>
		</g>
	</g>
</g>
<text class="st2 st5"> </text>
<text class="st2 st5"> </text>
<g id="section--overview" transform="translate(0,410.000003353)">
	<rect class="st11" width="1000" height="295"/>
	<g transform="translate(30,30)">
		<g id="developing" transform="translate(0,0)">
			<text transform="matrix(1 0 0 1 30 0)" class="st12 st2 st5">Development</text>
			<text transform="matrix(1 0 0 1 788.9844 0)" class="st12 st2 st5">12</text>
			<text transform="matrix(1 0 0 1 812.9883 0)" class="st12 st2 st5"> </text>
			<text transform="matrix(1 0 0 1 839.9902 0)" class="st12 st2 st5">years</text>
			<g>
				<a>
					<text transform="matrix(1 0 0 1 410 0)" class="st12 st2 st13" style="text-decoration: underline;">Link:</text>
					<text transform="matrix(1 0 0 1 449.0063 0)" class="st12 st2 st14" style="text-decoration: underline;"> </text>
					<text transform="matrix(1 0 0 1 458.6079 0)" class="st15 st2 st14" style="text-decoration: underline;">[</text>
					<text transform="matrix(1 0 0 1 468.2095 0)" class="st12 st2 st14" style="text-decoration: underline;">a story</text>
					<text transform="matrix(1 0 0 1 535.4204 0)" class="st15 st2 st14" style="text-decoration: underline;">]</text>
					<text transform="matrix(1 0 0 1 545.022 0)" class="st15 st2 st14" style="text-decoration: underline;">(https://spwashi.com/on/development?from=spwashi.resume)</text>
				</a>
			</g>
		</g>
		<text class="st12 st2 st5"> </text>
		<g id="deploying" transform="translate(0,50)">
			<text transform="matrix(1 0 0 1 30 0)" class="st12 st2 st5">Deployment</text>
			<text transform="matrix(1 0 0 1 788.9844 0)" class="st12 st2 st5">10</text>
			<text transform="matrix(1 0 0 1 812.9883 0)" class="st12 st2 st5"> </text>
			<text transform="matrix(1 0 0 1 839.9902 0)" class="st12 st2 st5">years</text>
			<g>
				<a>
					<text transform="matrix(1 0 0 1 410 0)" class="st12 st2 st13" style="text-decoration: underline;">Link:</text>
					<text transform="matrix(1 0 0 1 449.0063 0)" class="st12 st2 st14" style="text-decoration: underline;"> </text>
					<text transform="matrix(1 0 0 1 458.6079 0)" class="st15 st2 st14" style="text-decoration: underline;">[</text>
					<text transform="matrix(1 0 0 1 468.2095 0)" class="st12 st2 st14" style="text-decoration: underline;">a few musings</text>
					<text transform="matrix(1 0 0 1 593.0298 0)" class="st15 st2 st14" style="text-decoration: underline;">]</text>
					<text transform="matrix(1 0 0 1 602.6313 0)" class="st15 st2 st14" style="text-decoration: underline;">(https://spwashi.com/on/deployment?from=spwashi.resume)</text>
				</a>
			</g>
		</g>
		<text class="st12 st2 st5"> </text>
		<g id="architecting" transform="translate(0,100)">
			<text transform="matrix(1 0 0 1 30 0)" class="st12 st2 st5">Architecture</text>
			<text transform="matrix(1 0 0 1 800.9863 0)" class="st12 st2 st5">8</text>
			<text transform="matrix(1 0 0 1 812.9883 0)" class="st12 st2 st5"> </text>
			<text transform="matrix(1 0 0 1 839.9902 0)" class="st12 st2 st5">years</text>
			<g>
				<a>
					<text transform="matrix(1 0 0 1 410 0)" class="st12 st2 st13" style="text-decoration: underline;">Link:</text>
					<text transform="matrix(1 0 0 1 449.0063 0)" class="st12 st2 st14" style="text-decoration: underline;"> </text>
					<text transform="matrix(1 0 0 1 458.6079 0)" class="st15 st2 st14" style="text-decoration: underline;">[</text>
					<text transform="matrix(1 0 0 1 468.2095 0)" class="st12 st2 st14" style="text-decoration: underline;">a cool project</text>
					<text transform="matrix(1 0 0 1 602.6313 0)" class="st15 st2 st14" style="text-decoration: underline;">]</text>
					<text transform="matrix(1 0 0 1 612.2329 0)" class="st15 st2 st14" style="text-decoration: underline;">(https://spwashi.com/on/architecture?from=spwashi.resume)</text>
				</a>
			</g>
		</g>
		<text class="st12 st2 st5"> </text>
		<g id="github" transform="translate(0,150)">
			<text transform="matrix(1 0 0 1 30 0)" class="st12 st2 st5">GitHub</text>
			<text transform="matrix(1 0 0 1 800.9863 0)" class="st12 st2 st5">7</text>
			<text transform="matrix(1 0 0 1 812.9883 0)" class="st12 st2 st5"> </text>
			<text transform="matrix(1 0 0 1 839.9902 0)" class="st12 st2 st5">years</text>
			<g>
				<a>
					<text transform="matrix(1 0 0 1 410 0)" class="st12 st2 st13" style="text-decoration: underline;">Link:</text>
					<text transform="matrix(1 0 0 1 449.0063 0)" class="st12 st2 st14" style="text-decoration: underline;"> </text>
					<text transform="matrix(1 0 0 1 458.6079 0)" class="st15 st2 st14" style="text-decoration: underline;">[</text>
					<text transform="matrix(1 0 0 1 468.2095 0)" class="st12 st2 st14" style="text-decoration: underline;">my profile</text>
					<text transform="matrix(1 0 0 1 564.2251 0)" class="st15 st2 st14" style="text-decoration: underline;">]</text>
					<text transform="matrix(1 0 0 1 573.8267 0)" class="st15 st2 st14" style="text-decoration: underline;">(https://github.com/spwashi)</text>
				</a>
			</g>
		</g>
		<text class="st12 st2 st5"> </text>
		<g id="college" transform="translate(0,200)">
			<text transform="matrix(1 0 0 1 30 0)" class="st12 st2 st5">Post-college</text>
			<text transform="matrix(1 0 0 1 800.9863 0)" class="st12 st2 st5">6</text>
			<text transform="matrix(1 0 0 1 812.9883 0)" class="st12 st2 st5"> </text>
			<text transform="matrix(1 0 0 1 839.9902 0)" class="st12 st2 st5">years</text>
			<g>
				<a>
					<text transform="matrix(1 0 0 1 470 0)" class="st12 st2 st14" style="text-decoration: underline;">                             </text>
					<text transform="matrix(1 0 0 1 410 0)" class="st12 st2 st13" style="text-decoration: underline;">Link:</text>
					<text transform="matrix(1 0 0 1 449.0063 0)" class="st12 st2 st14" style="text-decoration: underline;">        </text>
					<text transform="matrix(1 0 0 1 525.8188 0)" class="st15 st2 st14" style="text-decoration: underline;">[</text>
					<text transform="matrix(1 0 0 1 535.4204 0)" class="st12 st2 st14" style="text-decoration: underline;">a cool project</text>
					<text transform="matrix(1 0 0 1 669.8423 0)" class="st15 st2 st14" style="text-decoration: underline;">]</text>
					<text transform="matrix(1 0 0 1 679.4438 0)" class="st15 st2 st14" style="text-decoration: underline;">(https://spwashi.com/on/education?from=spwashi.resume)</text>
					<text transform="matrix(1 0 0 1 1197.9282 0)" class="st12 st2 st14" style="text-decoration: underline;">                         </text>
				</a>
			</g>
			<text transform="matrix(1 0 0 1 48 25)" class="st12 st2 st16">University of Illinois Urbana-Champaign</text>
			<text transform="matrix(1 0 0 1 328.8457 25)" class="st12 st2 st16"> </text>
			<text transform="matrix(1 0 0 1 72 49)" class="st12 st2 st16">Learning and Education Studies</text>
		</g>
	</g>
</g>
<text class="st2 st5"> </text>
<text class="st2 st5"> </text>
<g id="section--experience" transform="translate(0,715.000004464)">
	<rect class="st17" width="1000" height="1665"/>
	<rect class="st18" width="1000" height="60"/>
	<g transform="translate(30,30)">
		<g id="section--experience--title" transform="translate(30,10)">
			<text class="st19 st2 st3">Professional Experience</text>
			<text transform="matrix(1 0 0 1 714.4775 0)" class="st19 st2 st3">10</text>
			<text transform="matrix(1 0 0 1 750.4834 0)" class="st19 st2 st5"> </text>
			<text transform="matrix(1 0 0 1 784.9854 0)" class="st19 st2 st3">years</text>
		</g>
		<text class="st19 st2 st5"> </text>
		<g transform="translate(30, 80)">
			<text class="st19 st2 st20">I&apos;ve spent a fair bit of time exploring language.</text>
			<text transform="matrix(1 0 0 1 499.8813 0)" class="st19 st2 st20"> </text>
			<text transform="matrix(1 0 0 1 30 40)" class="st19 st2 st20">Especially wondering how language can be utilized to:</text>
			<text transform="matrix(1 0 0 1 570.688 40)" class="st19 st2 st20"> </text>
			<text transform="matrix(1 0 0 1 70 80)" class="st19 st2 st20">1) construct symbolic landmarks,</text>
			<text transform="matrix(1 0 0 1 396.4532 80)" class="st19 st2 st20"> </text>
			<text transform="matrix(1 0 0 1 70 120)" class="st19 st2 st20">2) identify facets of ambiguity, and</text>
			<text transform="matrix(1 0 0 1 437.2598 120)" class="st19 st2 st20"> </text>
			<text transform="matrix(1 0 0 1 70 160)" class="st19 st2 st20">3) develop cohesive visualizations to interact with those structures.</text>
		</g>
		<text class="st19 st2 st5"> </text>
		<g transform="translate(90, 300)">
			<text class="st19 st21 st5">Professionally,</text>
			<text transform="matrix(1 0 0 1 180.0293 0)" class="st19 st21 st5"> </text>
			<text transform="matrix(1 0 0 1 20 35)" class="st19 st21 st5">I&apos;ve had variety:</text>
		</g>
		<g transform="translate(130, 340)">
			<text transform="matrix(1 0 0 1 30 30)" class="st19 st21 st22">small teams</text>
			<text transform="matrix(1 0 0 1 129.0161 30)" class="st19 st2 st22"> </text>
			<text transform="matrix(1 0 0 1 278.0176 30)" class="st23 st2 st22">with new codebases,</text>
			<text transform="matrix(1 0 0 1 449.0454 30)" class="st19 st2 st22"> </text>
			<text transform="matrix(1 0 0 1 70 60)" class="st19 st21 st22">mid-sized teams</text>
			<text transform="matrix(1 0 0 1 205.022 60)" class="st19 st2 st22"> </text>
			<text transform="matrix(1 0 0 1 284.0234 60)" class="st23 st2 st22">with mature codebases;</text>
			<text transform="matrix(1 0 0 1 482.0557 60)" class="st19 st2 st22"> </text>
			<text transform="matrix(1 0 0 1 50 90)" class="st19 st21 st22">codebases inherited</text>
			<text transform="matrix(1 0 0 1 221.0278 90)" class="st19 st2 st22"> </text>
			<text transform="matrix(1 0 0 1 300.0293 90)" class="st23 st2 st22">through company mergers,</text>
			<text transform="matrix(1 0 0 1 516.0645 90)" class="st19 st2 st22"> </text>
			<text transform="matrix(1 0 0 1 90 120)" class="st19 st21 st22">codebases maintained</text>
			<text transform="matrix(1 0 0 1 270.0293 120)" class="st19 st2 st22"> </text>
			<text transform="matrix(1 0 0 1 329.0308 120)" class="st23 st2 st22">through high turnover;</text>
		</g>
		<text class="st19 st2 st5"> </text>
		<g transform="translate(170, 470)">
			<text transform="matrix(1 0 0 1 30 30)" class="st19 st21 st22">scripted backends</text>
			<text transform="matrix(1 0 0 1 183.0249 30)" class="st19 st2 st22"> </text>
			<text transform="matrix(1 0 0 1 272.0264 30)" class="st23 st2 st22">with compiled frontends,</text>
			<text transform="matrix(1 0 0 1 488.0615 30)" class="st19 st2 st22"> </text>
			<text transform="matrix(1 0 0 1 70 60)" class="st19 st21 st22">compiled backends</text>
			<text transform="matrix(1 0 0 1 223.0249 60)" class="st19 st2 st22"> </text>
			<text transform="matrix(1 0 0 1 292.0264 60)" class="st23 st2 st22">with CDN-hosted JavaScript;</text>
			<text transform="matrix(1 0 0 1 535.0659 60)" class="st19 st2 st22"> </text>
			<text transform="matrix(1 0 0 1 50 90)" class="st19 st21 st22">developing managers</text>
			<text transform="matrix(1 0 0 1 221.0278 90)" class="st19 st2 st22"> </text>
			<text transform="matrix(1 0 0 1 300.0293 90)" class="st23 st2 st22">with very hands-off approaches,</text>
			<text transform="matrix(1 0 0 1 579.0747 90)" class="st19 st2 st22"> </text>
			<text transform="matrix(1 0 0 1 90 120)" class="st19 st21 st22">non-developing managers</text>
			<text transform="matrix(1 0 0 1 297.0337 120)" class="st19 st2 st22"> </text>
			<text transform="matrix(1 0 0 1 356.0352 120)" class="st23 st2 st22">with very hands-on approaches;</text>
			<text transform="matrix(1 0 0 1 626.0791 120)" class="st19 st2 st22"> </text>
			<text transform="matrix(1 0 0 1 450 150)" class="st24 st21 st22">^ (and I&apos;ve learned from each</text>
			<text transform="matrix(1 0 0 1 711.0425 150)" class="st19 st21 st22"> </text>
			<text transform="matrix(1 0 0 1 520 175)" class="st24 st21 st22">to practice different ways</text>
			<text transform="matrix(1 0 0 1 754.0381 175)" class="st19 st21 st22"> </text>
			<text transform="matrix(1 0 0 1 550 200)" class="st24 st21 st22">of reducing ambiguity)</text>
		</g>
		<text class="st19 st2 st5"> </text>
		<g transform="translate(30, 680)">
			<text transform="matrix(1 0 0 1 0 30)" class="st19 st2 st5">The first thing I do when I start a job is learn the language.</text>
			<text transform="matrix(1 0 0 1 744.1212 30)" class="st19 st2 st5"> </text>
			<text transform="matrix(1 0 0 1 756.1231 30)" class="st25 st2 st5">I learn</text>
			<text transform="matrix(1 0 0 1 840.1368 30)" class="st19 st2 st5"> </text>
			<text transform="matrix(1 0 0 1 50 60)" class="st19 st2 st5">what the goals are,</text>
			<text transform="matrix(1 0 0 1 278.0371 60)" class="st19 st2 st5"> </text>
			<text transform="matrix(1 0 0 1 70 90)" class="st19 st2 st5">how those goals been pursued in the past,</text>
			<text transform="matrix(1 0 0 1 562.0801 90)" class="st19 st2 st5"> </text>
			<text transform="matrix(1 0 0 1 90 120)" class="st19 st2 st5">and how the current direction of the team relates to that aim.</text>
			<text transform="matrix(1 0 0 1 834.1212 120)" class="st19 st2 st5"> </text>
			<text transform="matrix(1 0 0 1 0 160)" class="st19 st2 st5">Then, I practice using that language.</text>
			<text transform="matrix(1 0 0 1 444.0723 160)" class="st19 st2 st5"> </text>
			<text transform="matrix(1 0 0 1 50 190)" class="st19 st2 st5">Every team is unique,</text>
			<text transform="matrix(1 0 0 1 302.041 190)" class="st19 st2 st5"> </text>
			<text transform="matrix(1 0 0 1 70 220)" class="st19 st2 st5">and I find that it&apos;s easy to make assumptions</text>
			<text transform="matrix(1 0 0 1 610.088 220)" class="st19 st2 st5"> </text>
			<text transform="matrix(1 0 0 1 90 250)" class="st19 st2 st5">that any particular concept is universally understood.</text>
		</g>
		<text class="st19 st2 st5"> </text>
		<g transform="translate(0,940)">
			<g id="section--experience--_F_" transform="translate(30,160)">
				<text class="st19 st21 st5">_F_[name]</text>
				<text transform="matrix(1 0 0 1 108.0176 0)" class="st19 st2 st5"> </text>
				<text transform="matrix(1 0 0 1 132.5195 0)" class="st19 st6 st26">_F_[city]</text>
				<g transform="translate(20)">
					<text transform="matrix(1 0 0 1 0 26)" class="st19 st2 st13">Bug Diagnosis</text>
					<text transform="matrix(1 0 0 1 101.4165 26)" class="st19 st2 st5"> </text>
					<text transform="matrix(1 0 0 1 113.4185 26)" class="st25 st2 st13">,</text>
					<text transform="matrix(1 0 0 1 121.2197 26)" class="st19 st2 st5"> </text>
					<text transform="matrix(1 0 0 1 0 52)" class="st19 st2 st13">Architecture Visualization</text>
				</g>
				<g transform="translate(350)">
					<text transform="matrix(1 0 0 1 0 26)" class="st19 st2 st13">React</text>
					<text transform="matrix(1 0 0 1 39.0063 26)" class="st19 st2 st5"> </text>
					<text transform="matrix(1 0 0 1 51.0083 26)" class="st25 st2 st13">,</text>
					<text transform="matrix(1 0 0 1 58.8096 26)" class="st19 st2 st5"> </text>
					<text transform="matrix(1 0 0 1 0 52)" class="st19 st2 st13">Mobx/Redux</text>
					<text transform="matrix(1 0 0 1 78.0127 52)" class="st19 st2 st5"> </text>
					<text transform="matrix(1 0 0 1 90.0146 52)" class="st25 st2 st13">,</text>
					<text transform="matrix(1 0 0 1 97.8159 52)" class="st19 st2 st5"> </text>
					<text transform="matrix(1 0 0 1 0 78)" class="st19 st2 st13">Gatsby</text>
				</g>
			</g>
			<text class="st19 st2 st5"> </text>
			<g id="section--experience--_E_" transform="translate(30,50)">
				<text class="st19 st21 st5">_E_[name]</text>
				<text transform="matrix(1 0 0 1 108.0176 0)" class="st19 st2 st5"> </text>
				<text transform="matrix(1 0 0 1 132.5195 0)" class="st19 st6 st26">(_E_[city])</text>
				<g transform="translate(875)">
					<text transform="matrix(1 0 0 1 -48.0078 0)" class="st19 st2 st5">2022</text>
					<text transform="matrix(1 0 0 1 -288.0469 40)" class="st19 st21 st5">Senior Software Engineer</text>
				</g>
				<g transform="translate(20)">
					<text transform="matrix(1 0 0 1 0 26)" class="st19 st2 st13">Design System Development</text>
					<text transform="matrix(1 0 0 1 195.0317 26)" class="st19 st2 st5"> </text>
					<text transform="matrix(1 0 0 1 207.0337 26)" class="st25 st2 st13">,</text>
					<text transform="matrix(1 0 0 1 214.835 26)" class="st19 st2 st5"> </text>
					<text transform="matrix(1 0 0 1 0 52)" class="st19 st2 st13">Component Library Research</text>
					<text transform="matrix(1 0 0 1 202.833 52)" class="st19 st2 st5"> </text>
					<text transform="matrix(1 0 0 1 214.835 52)" class="st25 st2 st13">,</text>
					<text transform="matrix(1 0 0 1 222.6362 52)" class="st19 st2 st5"> </text>
					<text transform="matrix(1 0 0 1 0 78)" class="st19 st2 st13">Project Architecture</text>
				</g>
				<g transform="translate(350)">
					<text transform="matrix(1 0 0 1 0 26)" class="st19 st2 st13">Java</text>
					<text transform="matrix(1 0 0 1 31.2051 26)" class="st19 st2 st5"> </text>
					<text transform="matrix(1 0 0 1 43.207 26)" class="st25 st2 st13">,</text>
					<text transform="matrix(1 0 0 1 51.0083 26)" class="st19 st2 st5"> </text>
					<text transform="matrix(1 0 0 1 0 52)" class="st19 st2 st13">React</text>
					<text transform="matrix(1 0 0 1 39.0063 52)" class="st19 st2 st5"> </text>
					<text transform="matrix(1 0 0 1 51.0083 52)" class="st25 st2 st13">,</text>
					<text transform="matrix(1 0 0 1 58.8096 52)" class="st19 st2 st5"> </text>
					<text transform="matrix(1 0 0 1 0 78)" class="st19 st2 st13">Mantine</text>
				</g>
			</g>
			<text class="st19 st2 st5"> </text>
			<g id="section--experience--_D_" transform="translate(30,245)">
				<text class="st19 st21 st5">_D_[name]</text>
				<text transform="matrix(1 0 0 1 108.0176 0)" class="st19 st2 st5"> </text>
				<text transform="matrix(1 0 0 1 132.5195 0)" class="st19 st6 st26">(_D_[city])</text>
				<g transform="translate(875)">
					<text transform="matrix(1 0 0 1 -108.0176 0)" class="st19 st2 st5">2019-2021</text>
					<text transform="matrix(1 0 0 1 -216.0352 40)" class="st19 st21 st5">Fullstack Engineer</text>
				</g>
				<g transform="translate(20)">
					<text transform="matrix(1 0 0 1 0 26)" class="st19 st2 st13">Internal App Development</text>
					<text transform="matrix(1 0 0 1 187.2305 26)" class="st19 st2 st5"> </text>
					<text transform="matrix(1 0 0 1 199.2324 26)" class="st25 st2 st13">,</text>
					<text transform="matrix(1 0 0 1 207.0337 26)" class="st19 st2 st5"> </text>
					<text transform="matrix(1 0 0 1 0 52)" class="st19 st2 st13">Fraud Detection/Prevention</text>
					<text transform="matrix(1 0 0 1 202.833 52)" class="st19 st2 st5"> </text>
					<text transform="matrix(1 0 0 1 214.835 52)" class="st25 st2 st13">,</text>
					<text transform="matrix(1 0 0 1 222.6362 52)" class="st19 st2 st5"> </text>
					<text transform="matrix(1 0 0 1 0 78)" class="st19 st2 st13">Code Review</text>
				</g>
				<g transform="translate(350)">
					<text transform="matrix(1 0 0 1 0 26)" class="st19 st2 st13">PHP</text>
					<text transform="matrix(1 0 0 1 23.4038 26)" class="st19 st2 st5"> </text>
					<text transform="matrix(1 0 0 1 35.4058 26)" class="st25 st2 st13">,</text>
					<text transform="matrix(1 0 0 1 43.207 26)" class="st19 st2 st5"> </text>
					<text transform="matrix(1 0 0 1 0 52)" class="st19 st2 st13">Symfony</text>
					<text transform="matrix(1 0 0 1 54.6089 52)" class="st19 st2 st5"> </text>
					<text transform="matrix(1 0 0 1 66.6108 52)" class="st25 st2 st13">,</text>
					<text transform="matrix(1 0 0 1 74.4121 52)" class="st19 st2 st5"> </text>
					<text transform="matrix(1 0 0 1 0 78)" class="st19 st2 st13">React</text>
				</g>
			</g>
			<text class="st19 st2 st5"> </text>
			<g id="section--experience--_C_" transform="translate(30,360)">
				<text class="st19 st21 st5">_C_[name]</text>
				<text transform="matrix(1 0 0 1 108.0176 0)" class="st19 st2 st5"> </text>
				<text transform="matrix(1 0 0 1 132.5195 0)" class="st19 st6 st26">(_C_[city])</text>
				<g transform="translate(875)">
					<text transform="matrix(1 0 0 1 -108.0176 0)" class="st19 st2 st5">2018-2019</text>
					<text transform="matrix(1 0 0 1 -360.0586 40)" class="st19 st21 st5">Digital Applications Developer</text>
				</g>
				<g transform="translate(20)">
					<text transform="matrix(1 0 0 1 0 26)" class="st19 st2 st13">Software Lifecycle Management</text>
					<text transform="matrix(1 0 0 1 226.2368 26)" class="st19 st2 st5"> </text>
					<text transform="matrix(1 0 0 1 238.2388 26)" class="st25 st2 st13">,</text>
					<text transform="matrix(1 0 0 1 246.04 26)" class="st19 st2 st5"> </text>
					<text transform="matrix(1 0 0 1 0 52)" class="st19 st2 st13">Marketing Site Development</text>
					<text transform="matrix(1 0 0 1 202.833 52)" class="st19 st2 st5"> </text>
					<text transform="matrix(1 0 0 1 214.835 52)" class="st25 st2 st13">,</text>
					<text transform="matrix(1 0 0 1 222.6362 52)" class="st19 st2 st5"> </text>
					<text transform="matrix(1 0 0 1 0 78)" class="st19 st2 st13">Content Management</text>
				</g>
				<g transform="translate(350)">
					<text transform="matrix(1 0 0 1 0 26)" class="st19 st2 st13">React</text>
					<text transform="matrix(1 0 0 1 39.0063 26)" class="st19 st2 st5"> </text>
					<text transform="matrix(1 0 0 1 51.0083 26)" class="st25 st2 st13">,</text>
					<text transform="matrix(1 0 0 1 58.8096 26)" class="st19 st2 st5"> </text>
					<text transform="matrix(1 0 0 1 0 52)" class="st19 st2 st13">Drupal</text>
					<text transform="matrix(1 0 0 1 46.8076 52)" class="st19 st2 st5"> </text>
					<text transform="matrix(1 0 0 1 58.8096 52)" class="st25 st2 st13">,</text>
					<text transform="matrix(1 0 0 1 66.6108 52)" class="st19 st2 st5"> </text>
					<text transform="matrix(1 0 0 1 0 78)" class="st19 st2 st13">PHP</text>
				</g>
			</g>
			<text class="st19 st2 st5"> </text>
			<g id="section--experience--_B_" transform="translate(30,475)">
				<text class="st19 st21 st5">_B_[name]</text>
				<text transform="matrix(1 0 0 1 108.0176 0)" class="st19 st2 st5"> </text>
				<text transform="matrix(1 0 0 1 132.5195 0)" class="st19 st6 st26">(_B_[city])</text>
				<g transform="translate(875)">
					<text transform="matrix(1 0 0 1 -108.0176 0)" class="st19 st2 st5">2016-2017</text>
					<text transform="matrix(1 0 0 1 -252.041 40)" class="st19 st21 st5">Intern, Web Developer</text>
				</g>
				<g transform="translate(20)">
					<text transform="matrix(1 0 0 1 0 26)" class="st19 st2 st13">Project Architecture</text>
					<text transform="matrix(1 0 0 1 156.0254 26)" class="st19 st2 st5"> </text>
					<text transform="matrix(1 0 0 1 168.0273 26)" class="st25 st2 st13">,</text>
					<text transform="matrix(1 0 0 1 175.8286 26)" class="st19 st2 st5"> </text>
					<text transform="matrix(1 0 0 1 0 52)" class="st19 st2 st13">Order Placement</text>
					<text transform="matrix(1 0 0 1 117.019 52)" class="st19 st2 st5"> </text>
					<text transform="matrix(1 0 0 1 129.021 52)" class="st25 st2 st13">,</text>
					<text transform="matrix(1 0 0 1 136.8223 52)" class="st19 st2 st5"> </text>
					<text transform="matrix(1 0 0 1 0 78)" class="st19 st2 st13">Authentication</text>
				</g>
				<g transform="translate(350)">
					<text transform="matrix(1 0 0 1 0 26)" class="st19 st2 st13">PHP</text>
					<text transform="matrix(1 0 0 1 23.4038 26)" class="st19 st2 st5"> </text>
					<text transform="matrix(1 0 0 1 35.4058 26)" class="st25 st2 st13">,</text>
					<text transform="matrix(1 0 0 1 43.207 26)" class="st19 st2 st5"> </text>
					<text transform="matrix(1 0 0 1 0 52)" class="st19 st2 st13">Drupal</text>
					<text transform="matrix(1 0 0 1 46.8076 52)" class="st19 st2 st5"> </text>
					<text transform="matrix(1 0 0 1 58.8096 52)" class="st25 st2 st13">,</text>
					<text transform="matrix(1 0 0 1 66.6108 52)" class="st19 st2 st5"> </text>
					<text transform="matrix(1 0 0 1 0 78)" class="st19 st2 st13">Symfony</text>
				</g>
			</g>
			<text class="st19 st2 st5"> </text>
			<g id="section--experience--_A_" transform="translate(30,590)">
				<text class="st19 st21 st5">_A_[name]</text>
				<text transform="matrix(1 0 0 1 108.0176 0)" class="st19 st2 st5"> </text>
				<text transform="matrix(1 0 0 1 132.5195 0)" class="st19 st6 st26">(_A_[city])</text>
				<g transform="translate(875)">
					<text transform="matrix(1 0 0 1 -108.0176 0)" class="st19 st2 st5">2012-2016</text>
					<text transform="matrix(1 0 0 1 -204.0332 40)" class="st19 st21 st5">Intern, Architect</text>
				</g>
				<g transform="translate(20)">
					<text transform="matrix(1 0 0 1 0 26)" class="st19 st2 st13">Project Architecture</text>
					<text transform="matrix(1 0 0 1 156.0254 26)" class="st19 st2 st5"> </text>
					<text transform="matrix(1 0 0 1 168.0273 26)" class="st25 st2 st13">,</text>
					<text transform="matrix(1 0 0 1 175.8286 26)" class="st19 st2 st5"> </text>
					<text transform="matrix(1 0 0 1 0 52)" class="st19 st2 st13">User Profile Administration</text>
					<text transform="matrix(1 0 0 1 210.6343 52)" class="st19 st2 st5"> </text>
					<text transform="matrix(1 0 0 1 222.6362 52)" class="st25 st2 st13">,</text>
					<text transform="matrix(1 0 0 1 230.4375 52)" class="st19 st2 st5"> </text>
					<text transform="matrix(1 0 0 1 0 78)" class="st19 st2 st13">Document Storage</text>
				</g>
				<g transform="translate(350)">
					<text transform="matrix(1 0 0 1 0 26)" class="st19 st2 st13">PHP</text>
					<text transform="matrix(1 0 0 1 23.4038 26)" class="st19 st2 st5"> </text>
					<text transform="matrix(1 0 0 1 35.4058 26)" class="st25 st2 st13">,</text>
					<text transform="matrix(1 0 0 1 43.207 26)" class="st19 st2 st5"> </text>
					<text transform="matrix(1 0 0 1 0 52)" class="st19 st2 st13">JavaScript</text>
					<text transform="matrix(1 0 0 1 78.0127 52)" class="st19 st2 st5"> </text>
					<text transform="matrix(1 0 0 1 90.0146 52)" class="st25 st2 st13">,</text>
					<text transform="matrix(1 0 0 1 97.8159 52)" class="st19 st2 st5"> </text>
					<text transform="matrix(1 0 0 1 0 78)" class="st19 st2 st13">jQuery</text>
				</g>
			</g>
		</g>
	</g>
</g>
<text class="st2 st5"> </text>
<text class="st2 st5"> </text>
<g id="section--meaningful-experience" transform="translate(0,2390.000005575)">
	<rect class="st27" width="1000" height="1610"/>
	<rect class="st18" width="1000" height="65"/>
	<g transform="translate(30,30)">
		<g id="section--meaningful-experience--title" transform="translate(30,10)">
			<text class="st28 st2 st3">Meaningful Experience</text>
		</g>
		<g id="section--meaningful-experience--description" transform="translate(30, 170)">
			<text transform="matrix(0.9962 -8.715574e-02 8.715574e-02 0.9962 -1.019239e-05 4.729629e-05)" class="st8 st21 st29">Hello!</text>
			<g transform="translate(70,0)">
				<text transform="matrix(1 0 0 1 0 70.1121)" class="st28 st2 st30">My name is</text>
				<text transform="matrix(1 0 0 1 240.0391 70.1121)" class="st28 st2 st30"> </text>
				<text transform="matrix(1 0 0 1 264.043 70.1121)" class="st31 st2 st32">Sam Washington!</text>
				<text transform="matrix(0.9962 8.715574e-02 -8.715574e-02 0.9962 240.1122 120.1121)" class="st31 st2 st32">and am</text>
				<text transform="matrix(0.9962 8.715574e-02 -8.715574e-02 0.9962 254.4597 121.3674)" class="st28 st2 st30"> </text>
				<text transform="matrix(0.9962 8.715574e-02 -8.715574e-02 0.9962 260.036 121.8552)" class="st8 st21 st33">samwashington</text>
				<text transform="matrix(1 0 0 1 30 170.2242)" class="st28 st2 st34">and</text>
				<text transform="matrix(1 0 0 1 75.0073 170.2242)" class="st28 st2 st30"> </text>
				<text transform="matrix(1 0 0 1 129.0112 200.3364)" class="st28 st2 st30">I&apos;m</text>
				<text transform="matrix(1 0 0 1 201.0229 200.3364)" class="st28 st2 st30"> </text>
				<text transform="matrix(1 0 0 1 255.0269 220.4485)" class="st8 st35 st36">really good</text>
				<text transform="matrix(1 0 0 1 576.8784 205.4485)" class="st8 st35 st3">*</text>
				<text transform="matrix(1 0 0 1 594.8813 205.4485)" class="st28 st2 st30"> </text>
				<text transform="matrix(1 0 0 1 368.7731 285.5605)" class="st28 st2 st30">at</text>
				<text transform="matrix(1 0 0 1 416.7809 285.5605)" class="st28 st2 st30"> </text>
				<text transform="matrix(1 0 0 1 460.897 325.6729)" class="st8 st21 st37">learning</text>
				<text transform="matrix(1 0 0 1 796.9517 325.6729)" class="st28 st2 st30">.</text>
				<text class="st28 st2 st30"> </text>
				<text transform="matrix(1 0 0 1 30 400.2241)" class="st28 st2 st30">I majored in</text>
				<text transform="matrix(1 0 0 1 318.0469 400.2241)" class="st28 st2 st30"> </text>
				<text transform="matrix(1 0 0 1 142.0508 490.2241)" class="st8 st21 st30">Learning</text>
				<text transform="matrix(1 0 0 1 334.082 490.2241)" class="st8 st21 st30"> </text>
				<text transform="matrix(1 0 0 1 258.0859 530.2241)" class="st8 st21 st3">and</text>
				<text transform="matrix(1 0 0 1 312.0947 530.2241)" class="st8 st21 st30"> </text>
				<text transform="matrix(1 0 0 1 316.0986 580.2241)" class="st8 st21 st30">Education Studies</text>
				<text transform="matrix(1 0 0 1 724.165 580.2241)" class="st8 st21 st30"> </text>
				<text transform="matrix(1 0 0 1 248.1689 670.3364)" class="st28 st2 st30">after</text>
				<text transform="matrix(1 0 0 1 368.1885 670.3364)" class="st28 st2 st30"> </text>
				<text transform="matrix(1 0 0 1 392.1924 670.3364)" class="st31 st2 st32">two years in the</text>
				<text transform="matrix(1 0 0 1 430.5986 670.3364)" class="st28 st2 st30"> </text>
				<text transform="matrix(1 0 0 1 100 760.3364)" class="st8 st21 st30">Electrical</text>
				<text transform="matrix(1 0 0 1 340.0391 760.3364)" class="st8 st21 st30"> </text>
				<text transform="matrix(1 0 0 1 164.043 800.3364)" class="st8 st21 st3">and</text>
				<text transform="matrix(1 0 0 1 218.0518 800.3364)" class="st8 st21 st30"> </text>
				<text transform="matrix(1 0 0 1 222.0557 850.3364)" class="st8 st21 st30">Computer</text>
				<text transform="matrix(1 0 0 1 414.087 850.3364)" class="st8 st21 st30"> </text>
				<text transform="matrix(1 0 0 1 338.0909 900.3364)" class="st8 st21 st30">Engineering</text>
				<text transform="matrix(1 0 0 1 602.1339 900.3364)" class="st8 st21 st30"> </text>
				<text transform="matrix(1 0 0 1 626.1378 900.3364)" class="st31 st2 st32">curriculum</text>
				<text transform="matrix(1 0 0 1 650.1417 900.3364)" class="st28 st2 st30"> </text>
				<text transform="matrix(1 0 0 1 200 990.4485)" class="st28 st2 st30">because</text>
				<text transform="matrix(1 0 0 1 368.0273 990.4485)" class="st28 st2 st30"> </text>
				<text transform="matrix(1 0 0 1 192.0312 1010.4485)" class="st27 st2 st38">I wanted to understand enough theory to build momentum for a student organization I&apos;d founded. </text>
				<text transform="matrix(1 0 0 1 14.8347 1010.4485)" class="st27 st2 st38">The student org was called Student Body for Meaningful Education (SBME), </text>
				<text transform="matrix(1 0 0 1 -167.6427 1010.4485)" class="st27 st2 st38">and it was focused on facilitating spaces for Discussing, Creating, and Connecting students </text>
				<text transform="matrix(1 0 0 1 -345.5594 1010.4485)" class="st27 st2 st38">to a sense of mutually profound meaning. Education means different things to different people, </text>
				<text transform="matrix(1 0 0 1 -522.756 1010.4485)" class="st27 st2 st38">and that made SBME an interesting challenge to tackle.</text>
				<text class="st28 st2 st30"> </text>
				<text transform="matrix(1 0 0 1 300 1020.1121)" class="st27 st2 st38">While I was pursuing Electrical Engineering,</text>
				<text transform="matrix(1 0 0 1 310.5616 1020.1121)" class="st27 st2 st32"> </text>
				<text transform="matrix(1 0 0 1 112.962 1020.1121)" class="st27 st2 st38">I got a chance to assist with research in the nanofabrication lab under Dr. Lynford Goddard. </text>
				<text transform="matrix(1 0 0 1 -64.7147 1020.1121)" class="st27 st2 st38">In that lab, the experiment I helped with was related to photoelectrochemical etching on silicon wafers </text>
				<text transform="matrix(1 0 0 1 -239.7509 1020.1121)" class="st27 st2 st38">— essentially using rays of light in certain chemical solutions to make shapes like transistors. </text>
				<text transform="matrix(1 0 0 1 -416.4674 1020.1121)" class="st27 st2 st38">I definitely miss the Electrical and Computer Engineering curriculum because </text>
				<text transform="matrix(1 0 0 1 50 1070.1121)" class="st8 st21 st30">those math classes</text>
				<text transform="matrix(1 0 0 1 482.0703 1070.1121)" class="st28 st2 st30"> </text>
				<text transform="matrix(1 0 0 1 306.0742 1090.1121)" class="st27 st2 st38">and their pure science / engineering counterparts</text>
				<text transform="matrix(1 0 0 1 317.836 1090.1121)" class="st27 st2 st32"> </text>
				<text transform="matrix(1 0 0 1 120.2364 1090.1121)" class="st27 st2 st38">gave me a lot of really interesting and useful</text>
				<text transform="matrix(1 0 0 1 131.278 1090.1121)" class="st27 st2 st32"> </text>
				<text transform="matrix(1 0 0 1 -66.3216 1090.1121)" class="st27 st2 st38">metaphors for interpreting things in my daily life.</text>
				<text transform="matrix(1 0 0 1 -54.0797 1090.1121)" class="st27 st2 st32"> </text>
				<text transform="matrix(1 0 0 1 -251.6793 1090.1121)" class="st27 st2 st38">Especially Differential Equations, which helps me visualize highly dynamic systems by relating to their constituent parts. </text>
				<text transform="matrix(1 0 0 1 -422.1549 1090.1121)" class="st27 st2 st38">That math class in particular</text>
				<text transform="matrix(1 0 0 1 -415.1938 1090.1121)" class="st27 st2 st32"> </text>
				<text transform="matrix(1 0 0 1 100 1140.1121)" class="st28 st2 st30">taught me</text>
				<text transform="matrix(1 0 0 1 316.0352 1140.1121)" class="st28 st2 st30"> </text>
				<text transform="matrix(1 0 0 1 340.0391 1140.1121)" class="st31 st2 st32">the implications of</text>
				<text transform="matrix(1 0 0 1 385.6465 1140.1121)" class="st28 st2 st30"> </text>
				<text transform="matrix(1 0 0 1 50 1230.1121)" class="st8 st21 st39">exponential growth </text>
				<text transform="matrix(1 0 0 1 670.9337 1270.1121)" class="st27 st2 st38">, which combined with my values towards accessible stability,</text>
				<text transform="matrix(1 0 0 1 685.5759 1270.1121)" class="st27 st2 st32"> </text>
				<text transform="matrix(1 0 0 1 487.9763 1270.1121)" class="st27 st2 st38">made it clear that Learning and Education Studies would</text>
				<text transform="matrix(1 0 0 1 501.1782 1270.1121)" class="st27 st2 st32"> </text>
				<text transform="matrix(1 0 0 1 303.5786 1270.1121)" class="st27 st2 st38">be the most broadly useful major.</text>
				<text class="st28 st2 st30"> </text>
				<text transform="matrix(1 0 0 1 100 40)" class="st27 st2 st38">By that point, I had already worked with two companies as a software developer, </text>
				<text transform="matrix(1 0 0 1 -80.7971 40)" class="st27 st2 st38">and knew I was self-motivated enough to learn on my own.</text>
				<text transform="matrix(1 0 0 1 -67.3551 40)" class="st27 st2 st32"> </text>
				<text transform="matrix(1 0 0 1 -264.9547 40)" class="st27 st2 st38">I loved being in the College of Education because</text>
				<text transform="matrix(1 0 0 1 -253.1929 40)" class="st27 st2 st32"> </text>
				<text transform="matrix(1 0 0 1 -450.7925 40)" class="st27 st2 st38">you could tell the faculty genuinely cared about fostering their students&apos; </text>
				<text transform="matrix(1 0 0 1 -632.7899 40)" class="st27 st2 st38">relationships to the material.</text>
				<text transform="matrix(1 0 0 1 -625.5887 40)" class="st27 st2 st32"> </text>
				<text transform="matrix(1 0 0 1 -823.1884 40)" class="st27 st2 st38">There, I got a chance to assist with research in The Adult Learning Lab under Dr. Elizabeth A L Stine-Morrow, </text>
				<text transform="matrix(1 0 0 1 -996.7844 40)" class="st27 st2 st38">with an experiment examining the effects of periodic brain-training on cognitive function </text>
				<text transform="matrix(1 0 0 1 -1175.1812 40)" class="st27 st2 st38">(compared to reading or doing nothing for the same amount of time).</text>
				<text transform="matrix(1 0 0 1 -1159.0988 40)" class="st27 st2 st32"> </text>
				<text transform="matrix(1 0 0 1 -1356.6984 40)" class="st27 st2 st38">Dr. Stine-Morrow taught a class, Learning from Text, that introduced me </text>
				<text transform="matrix(1 0 0 1 -1539.4158 40)" class="st27 st2 st38">to the philosophy and cognitive science that now underpins a language I&apos;ve been developing called Spw.</text>
			</g>
		</g>
	</g>
</g>
</svg>
